<svg xmlns="http://www.w3.org/2000/svg" viewBox="0 0 2940 3247" shape-rendering="geometricPrecision" text-rendering="geometricPrecision" image-rendering="optimizeQuality" fill-rule="evenodd" clip-rule="evenodd"><path fill="#f50057" d="M575 1660c-42 0-77-38-77-84 0-47 34-84 77-84h658c42 0 77 38 77 84 0 47-34 84-77 84H575zM2467 512h276c54 0 104 22 139 58 36 36 58 85 58 139v2342c0 54-22 104-58 139-36 36-85 58-139 58H670c-54 0-104-22-139-58-36-36-58-85-58-139v-314H197c-54 0-104-22-139-58-36-36-58-85-58-139V198C0 144 22 94 58 59 94 23 143 1 197 1h2073c54 0 104 22 139 58 36 36 58 85 58 139v314zM641 2737v314c0 8 3 15 8 20s12 8 20 8h2073c8 0 15-3 20-8s8-12 8-20V709c0-8-3-15-8-20s-12-8-20-8h-276v1859c0 54-22 104-58 139-36 36-85 58-139 58H641zM2269 170H196c-8 0-15 3-20 8s-8 12-8 20v2342c0 8 3 15 8 20s12 8 20 8h2073c8 0 15-3 20-8s8-12 8-20V198c0-8-3-15-8-20s-12-8-20-8zM574 758c-42 0-77-38-77-84 0-47 34-84 77-84h1316c42 0 77 38 77 84 0 47-34 84-77 84H574zm0 451c-42 0-77-38-77-84 0-47 34-84 77-84h1316c42 0 77 38 77 84 0 47-34 84-77 84H574z" fill-rule="nonzero"/></svg>